<?xml version="1.0" encoding="utf-8"?>
<!-- Generator: Adobe Illustrator 23.0.1, SVG Export Plug-In . SVG Version: 6.00 Build 0)  -->
<svg version="1.1" id="Group_1_1_" xmlns="http://www.w3.org/2000/svg" xmlns:xlink="http://www.w3.org/1999/xlink" x="0px" y="0px"
	 viewBox="0 0 416 131" style="enable-background:new 0 0 416 131;" xml:space="preserve">
<style type="text/css">
	.st0{fill:#0B2E59;}
	.st1{fill:#509E2F;}
	.st2{fill:#383838;}
</style>
<g id="Shape_1">
	<g>
		<polygon class="st0" points="41.6,64.1 25,64.1 69.4,0 41.6,0 0,66.9 38.9,80.8 38.9,94.8 58.3,78 41.6,53 		"/>
	</g>
</g>
<g id="Shape_1_copy">
	<g>
		<polygon class="st1" points="69.4,47.4 69.4,33.4 50,50.2 66.6,75.3 66.6,64.1 83.3,64.1 38.9,128.2 66.6,128.2 108.3,61.3 		"/>
	</g>
</g>
<g id="Sparsh">
	<g>
		<path class="st2" d="M132.4,62.1l4.3-5.1c6.4,5.8,12.5,8.7,21,8.7c8.2,0,13.7-4.4,13.7-10.5v-0.2c0-5.7-3.1-9-16-11.7
			c-14.1-3.1-20.6-7.7-20.6-17.8v-0.2c0-9.7,8.5-16.8,20.2-16.8c8.9,0,15.3,2.6,21.6,7.6l-4,5.4c-5.7-4.7-11.4-6.7-17.7-6.7
			c-8,0-13.1,4.4-13.1,9.9V25c0,5.8,3.2,9.1,16.7,12c13.7,3,20,8,20,17.4v0.2c0,10.6-8.8,17.4-21,17.4
			C147.7,72,139.7,68.7,132.4,62.1z"/>
		<path class="st2" d="M189.2,25.6h6.8v9.2c3.7-5.5,9-10.1,17.4-10.1c10.9,0,21.7,8.6,21.7,23.6v0.2c0,14.9-10.7,23.7-21.7,23.7
			c-8.4,0-13.9-4.6-17.4-9.7v22.8h-6.8V25.6z M228,48.5v-0.2c0-10.7-7.4-17.6-16-17.6c-8.4,0-16.4,7.1-16.4,17.5v0.2
			c0,10.6,8,17.6,16.4,17.6C220.8,66,228,59.5,228,48.5z"/>
		<path class="st2" d="M241.8,57.9v-0.2c0-9.6,7.9-14.7,19.4-14.7c5.8,0,9.9,0.8,13.9,1.9v-1.6c0-8.2-5-12.4-13.5-12.4
			c-5.3,0-9.6,1.4-13.8,3.3l-2-5.5c5-2.3,9.9-3.8,16.5-3.8c6.4,0,11.3,1.7,14.6,5c3.1,3.1,4.6,7.5,4.6,13.3v27.8h-6.5v-6.9
			c-3.2,4.1-8.4,7.8-16.4,7.8C250.3,72,241.8,67.2,241.8,57.9z M275.2,54.4V50c-3.3-1-7.8-1.9-13.3-1.9c-8.5,0-13.2,3.7-13.2,9.4
			v0.2c0,5.7,5.3,9.1,11.4,9.1C268.3,66.7,275.2,61.6,275.2,54.4z"/>
		<path class="st2" d="M293.7,25.6h6.8v11.9c3.3-7.6,9.9-13,18.5-12.7v7.3h-0.5c-9.9,0-18,7.1-18,20.9v18.1h-6.8V25.6z"/>
		<path class="st2" d="M323.3,65.3l3.4-4.8c4.9,3.7,10.3,5.8,15.7,5.8c5.4,0,9.4-2.8,9.4-7.2v-0.2c0-4.6-5.3-6.3-11.3-8
			c-7.1-2-15-4.5-15-12.8v-0.2c0-7.8,6.5-13,15.4-13c5.5,0,11.7,1.9,16.3,5l-3.1,5.1c-4.2-2.7-9-4.4-13.4-4.4
			c-5.3,0-8.8,2.8-8.8,6.6v0.2c0,4.3,5.6,6,11.7,7.8c7,2.1,14.6,4.8,14.6,13v0.2c0,8.6-7.1,13.6-16.1,13.6
			C335.6,72,328.4,69.4,323.3,65.3z"/>
		<path class="st2" d="M368.5,6.8h6.8v26.7c3-4.9,7.7-8.9,15.5-8.9c11,0,17.4,7.4,17.4,18.2v28.2h-6.8V44.5
			c0-8.4-4.6-13.7-12.5-13.7c-7.8,0-13.6,5.7-13.6,14.3v26h-6.8V6.8z"/>
	</g>
</g>
<g id="Technologies">
	<g>
		<path class="st2" d="M130.2,96h20.1v2.4h-8.7v24.2H139V98.4h-8.7V96z"/>
		<path class="st2" d="M169.8,105.6c1.6,2,2.4,4.6,2.2,7.9h-16.5c0.2,2.1,1,3.8,2.3,5.1c1.4,1.3,3.1,2,5.1,2c1.3,0,2.4-0.2,3.5-0.7
			s2-1.1,2.8-1.9l1.4,1.4c-1,1-2.1,1.8-3.5,2.4c-1.4,0.6-2.8,0.9-4.4,0.9c-1.9,0-3.6-0.4-5.1-1.3c-1.5-0.8-2.7-2-3.5-3.6
			c-0.8-1.5-1.3-3.3-1.3-5.2c0-1.9,0.4-3.7,1.3-5.2c0.8-1.5,2-2.7,3.5-3.6c1.5-0.8,3.2-1.3,5-1.3
			C165.8,102.7,168.2,103.6,169.8,105.6z M169.7,111.5c-0.1-2.1-0.8-3.7-2.1-5c-1.2-1.2-2.9-1.8-4.9-1.8c-2,0-3.7,0.6-5,1.9
			c-1.3,1.2-2.1,2.9-2.3,4.9H169.7z"/>
		<path class="st2" d="M188.6,104.9c-1.4,0-2.7,0.3-3.8,1c-1.1,0.7-2,1.6-2.6,2.8c-0.6,1.2-0.9,2.5-0.9,4c0,1.5,0.3,2.9,0.9,4.1
			c0.6,1.2,1.5,2.1,2.6,2.8c1.1,0.7,2.4,1,3.8,1c1.3,0,2.5-0.2,3.5-0.7c1.1-0.5,2-1.1,2.7-2l1.4,1.5c-0.9,1.1-2,1.9-3.3,2.5
			c-1.3,0.6-2.8,0.9-4.5,0.9c-1.9,0-3.6-0.4-5.1-1.3c-1.5-0.8-2.7-2-3.5-3.6c-0.8-1.5-1.3-3.3-1.3-5.2c0-1.9,0.4-3.7,1.3-5.2
			c0.8-1.5,2-2.7,3.5-3.6c1.5-0.8,3.2-1.3,5.1-1.3c1.5,0,2.9,0.3,4.2,0.8c1.3,0.5,2.4,1.2,3.3,2.1l-1.4,1.7
			C192.9,105.7,190.9,104.9,188.6,104.9z"/>
		<path class="st2" d="M221.5,104.7c1.3,1.4,2,3.3,2,5.7v12.2H221V111c0-1.9-0.5-3.3-1.6-4.4c-1-1.1-2.5-1.6-4.3-1.6
			c-2.2,0-3.9,0.8-5.2,2.2c-1.3,1.4-1.9,3.3-1.9,5.7v9.8h-2.5V94.4h2.5v13c1.3-3.1,4-4.7,7.9-4.8
			C218.3,102.7,220.2,103.3,221.5,104.7z"/>
		<path class="st2" d="M249.7,104.7c1.3,1.4,2,3.3,2,5.7v12.2h-2.6V111c0-1.9-0.5-3.3-1.6-4.4c-1-1.1-2.5-1.6-4.3-1.6
			c-2,0-3.7,0.7-4.9,1.9c-1.2,1.2-1.9,2.9-2.1,5v10.7h-2.5v-19.9h2.5v4.6c0.7-1.5,1.7-2.7,3-3.5c1.3-0.8,2.9-1.2,4.8-1.2
			C246.5,102.7,248.4,103.3,249.7,104.7z"/>
		<path class="st2" d="M275,103.9c1.5,0.8,2.7,2,3.6,3.6c0.9,1.5,1.3,3.2,1.3,5.2c0,2-0.4,3.7-1.3,5.2c-0.9,1.5-2,2.7-3.6,3.6
			c-1.5,0.8-3.2,1.3-5.1,1.3c-1.9,0-3.6-0.4-5.1-1.3c-1.5-0.8-2.7-2-3.6-3.6c-0.9-1.5-1.3-3.3-1.3-5.2c0-1.9,0.4-3.6,1.3-5.2
			c0.9-1.5,2-2.7,3.6-3.6c1.5-0.8,3.2-1.3,5.1-1.3C271.8,102.7,273.5,103.1,275,103.9z M266,105.8c-1.1,0.7-2,1.6-2.6,2.8
			c-0.6,1.2-0.9,2.5-0.9,4.1c0,1.5,0.3,2.9,0.9,4.1c0.6,1.2,1.5,2.1,2.6,2.8c1.1,0.7,2.4,1,3.9,1s2.7-0.3,3.9-1
			c1.1-0.7,2-1.6,2.6-2.8s0.9-2.6,0.9-4.1c0-1.5-0.3-2.9-0.9-4.1c-0.6-1.2-1.5-2.1-2.6-2.8c-1.1-0.7-2.4-1-3.9-1
			S267.1,105.2,266,105.8z"/>
		<path class="st2" d="M288.8,94.4h2.5v28.2h-2.5V94.4z"/>
		<path class="st2" d="M315.5,103.9c1.5,0.8,2.7,2,3.6,3.6c0.9,1.5,1.3,3.2,1.3,5.2c0,2-0.4,3.7-1.3,5.2c-0.9,1.5-2,2.7-3.6,3.6
			c-1.5,0.8-3.2,1.3-5.1,1.3c-1.9,0-3.6-0.4-5.1-1.3c-1.5-0.8-2.7-2-3.6-3.6c-0.9-1.5-1.3-3.3-1.3-5.2c0-1.9,0.4-3.6,1.3-5.2
			c0.9-1.5,2-2.7,3.6-3.6c1.5-0.8,3.2-1.3,5.1-1.3C312.2,102.7,314,103.1,315.5,103.9z M306.5,105.8c-1.1,0.7-2,1.6-2.6,2.8
			c-0.6,1.2-0.9,2.5-0.9,4.1c0,1.5,0.3,2.9,0.9,4.1c0.6,1.2,1.5,2.1,2.6,2.8c1.1,0.7,2.4,1,3.9,1s2.7-0.3,3.9-1
			c1.1-0.7,2-1.6,2.6-2.8s0.9-2.6,0.9-4.1c0-1.5-0.3-2.9-0.9-4.1c-0.6-1.2-1.5-2.1-2.6-2.8c-1.1-0.7-2.4-1-3.9-1
			S307.6,105.2,306.5,105.8z"/>
		<path class="st2" d="M346.2,102.7v17.8c0,1.9-0.4,3.6-1.2,5.1c-0.8,1.4-2,2.6-3.5,3.3c-1.5,0.8-3.2,1.2-5.2,1.2
			c-2.9,0-5.6-1-8.1-3l1.2-1.8c1,0.9,2.1,1.6,3.2,2c1.1,0.5,2.3,0.7,3.6,0.7c2.3,0,4.1-0.7,5.4-2c1.3-1.3,2-3.1,2-5.3v-3.2
			c-0.7,1.4-1.7,2.5-3,3.3c-1.3,0.8-2.8,1.2-4.5,1.2c-1.8,0-3.3-0.4-4.7-1.2c-1.4-0.8-2.4-2-3.2-3.4c-0.8-1.5-1.2-3.1-1.2-5
			c0-1.8,0.4-3.5,1.2-4.9c0.8-1.4,1.8-2.6,3.2-3.4c1.4-0.8,3-1.2,4.7-1.2c1.7,0,3.2,0.4,4.5,1.2c1.3,0.8,2.3,1.9,3,3.3v-4.4H346.2z
			 M340.3,118.8c1.1-0.6,1.9-1.5,2.5-2.7s0.9-2.4,0.9-3.8c0-1.4-0.3-2.7-0.9-3.9s-1.5-2-2.5-2.7c-1.1-0.6-2.3-1-3.7-1
			c-1.4,0-2.6,0.3-3.7,1c-1.1,0.6-1.9,1.5-2.6,2.7s-0.9,2.4-0.9,3.9s0.3,2.7,0.9,3.9s1.5,2,2.5,2.7c1.1,0.6,2.3,1,3.7,1
			C338,119.8,339.2,119.4,340.3,118.8z"/>
		<path class="st2" d="M359.1,95.7c0.3,0.3,0.5,0.8,0.5,1.3c0,0.5-0.2,0.9-0.5,1.3c-0.3,0.4-0.8,0.5-1.2,0.5c-0.5,0-0.9-0.2-1.3-0.5
			c-0.3-0.4-0.5-0.8-0.5-1.3c0-0.5,0.2-0.9,0.5-1.3s0.8-0.5,1.3-0.5C358.3,95.2,358.8,95.4,359.1,95.7z M356.5,102.7h2.5v19.9h-2.5
			V102.7z"/>
		<path class="st2" d="M384.6,105.6c1.6,2,2.4,4.6,2.2,7.9h-16.5c0.2,2.1,1,3.8,2.3,5.1s3.1,2,5.1,2c1.3,0,2.4-0.2,3.5-0.7
			c1.1-0.5,2-1.1,2.8-1.9l1.4,1.4c-1,1-2.1,1.8-3.5,2.4c-1.3,0.6-2.8,0.9-4.4,0.9c-1.9,0-3.6-0.4-5.1-1.3c-1.5-0.8-2.7-2-3.5-3.6
			s-1.3-3.3-1.3-5.2c0-1.9,0.4-3.7,1.3-5.2c0.8-1.5,2-2.7,3.5-3.6c1.5-0.8,3.2-1.3,5-1.3C380.7,102.7,383,103.6,384.6,105.6z
			 M384.6,111.5c-0.1-2.1-0.8-3.7-2.1-5s-2.9-1.8-4.9-1.8c-2,0-3.7,0.6-5,1.9s-2.1,2.9-2.3,4.9H384.6z"/>
		<path class="st2" d="M403.3,105.1c-0.9-0.3-1.9-0.4-2.8-0.4c-1.3,0-2.3,0.2-3,0.7s-1.2,1.2-1.2,2.2c0,0.7,0.2,1.2,0.6,1.7
			c0.4,0.4,0.9,0.8,1.6,1c0.6,0.3,1.5,0.6,2.6,0.9c1.4,0.4,2.5,0.8,3.3,1.2c0.9,0.4,1.6,1,2.2,1.7c0.6,0.7,0.9,1.7,0.9,2.9
			c0,1.8-0.7,3.2-2,4.1c-1.4,0.9-3.1,1.4-5.1,1.4c-1.4,0-2.8-0.2-4.2-0.7c-1.3-0.5-2.5-1.2-3.4-2.1l1-1.8c0.9,0.8,1.9,1.4,3,1.9
			c1.2,0.5,2.4,0.7,3.6,0.7c1.3,0,2.4-0.3,3.3-0.8c0.8-0.6,1.3-1.4,1.3-2.4c0-0.7-0.2-1.3-0.6-1.8s-1-0.8-1.6-1.1
			c-0.6-0.3-1.5-0.6-2.7-0.9c-1.3-0.4-2.4-0.8-3.3-1.2c-0.8-0.4-1.5-0.9-2.1-1.7c-0.6-0.7-0.9-1.7-0.9-2.8c0-1.7,0.6-3.1,2-4
			c1.3-0.9,2.9-1.3,4.9-1.3c1.1,0,2.2,0.2,3.3,0.5c1.1,0.3,2,0.7,2.8,1.3l-1,1.9C405.1,105.8,404.2,105.4,403.3,105.1z"/>
	</g>
</g>
</svg>
